<?xml version='1.0' encoding='iso-8859-1'?>
<!DOCTYPE svg PUBLIC '-//W3C//DTD SVG 1.1//EN' 'http://www.w3.org/Graphics/SVG/1.1/DTD/svg11.dtd'>
<svg version="1.1" xmlns="http://www.w3.org/2000/svg" viewBox="0 0 480 480" xmlns:xlink="http://www.w3.org/1999/xlink" enable-background="new 0 0 480 480">
  <g>
    <path d="m436.045,158.793c6.692-31.905-3.055-65.212-26.341-88.499-18.313-18.314-42.664-28.399-68.564-28.399-6.715,0-13.392,0.691-19.935,2.061-17.829-27.298-48.273-43.956-81.206-43.956-32.933,0-63.377,16.659-81.208,43.956-6.543-1.369-13.219-2.061-19.934-2.061-25.9,0-50.25,10.086-68.564,28.399-23.286,23.287-33.032,56.594-26.34,88.5-27.294,17.83-43.953,48.275-43.953,81.207 0,32.933 16.659,63.377 43.953,81.207-6.691,31.907 3.056,65.213 26.341,88.5 18.314,18.314 42.664,28.399 68.564,28.399 6.716,0 13.392-0.691 19.936-2.061 17.829,27.296 48.273,43.954 81.206,43.954s63.377-16.659 81.207-43.956c6.543,1.369 13.22,2.06 19.936,2.061 0.002,0 0.003,0 0.003,0 25.897,0 50.246-10.086 68.561-28.4 23.285-23.287 33.032-56.594 26.341-88.5 27.296-17.83 43.952-48.272 43.952-81.206-0.002-32.933-16.662-63.376-43.955-81.206zm-16.283,148.862l-7.1,3.863 2.288,7.752c8,27.1 0.571,56.334-19.387,76.293-14.537,14.537-33.864,22.543-54.42,22.542-7.422-0.001-14.78-1.062-21.872-3.156l-7.751-2.289-3.863,7.1c-13.508,24.821-39.431,40.24-67.657,40.24-28.225,0-54.149-15.418-67.655-40.238l-3.864-7.1-7.751,2.289c-7.093,2.094-14.451,3.155-21.871,3.155-20.558,0-39.886-8.005-54.422-22.541-19.958-19.959-27.387-49.192-19.387-76.293l2.288-7.752-7.1-3.863c-24.819-13.505-40.238-39.429-40.238-67.656 0-28.226 15.419-54.15 40.238-67.655l7.101-3.863-2.289-7.752c-8.001-27.1-0.573-56.334 19.386-76.293 14.536-14.536 33.863-22.541 54.421-22.541 7.42,0 14.778,1.062 21.871,3.155l7.751,2.288 3.863-7.099c13.508-24.822 39.431-40.241 67.657-40.241 28.225,0 54.148,15.418 67.654,40.239l3.863,7.099 7.752-2.288c7.093-2.094 14.451-3.155 21.871-3.155 20.559,0 39.887,8.005 54.423,22.541 19.958,19.96 27.387,49.193 19.386,76.292l-2.289,7.752 7.101,3.863c24.819,13.505 40.238,39.43 40.24,67.657-5.68434e-14,28.225-15.419,54.149-40.238,67.655z"/>
    <path d="m393.921,176.243c-8.718-21.046-27.111-36.276-49.053-41.114-4.836-21.939-20.066-40.332-41.112-49.051-8.464-3.506-17.367-5.283-26.461-5.283-13.211,0-26.199,3.831-37.297,10.904-11.096-7.073-24.082-10.904-37.293-10.904-9.095,0-17.998,1.777-26.462,5.284-21.045,8.716-36.276,27.11-41.113,49.053-21.942,4.837-40.335,20.067-49.051,41.112-8.718,21.046-6.481,44.822 5.612,63.757-12.094,18.935-14.33,42.71-5.612,63.755s27.11,36.277 49.052,41.115c4.837,21.941 20.068,40.335 41.113,49.052 8.465,3.506 17.368,5.283 26.462,5.283 13.211,0 26.198-3.831 37.294-10.903 11.096,7.071 24.083,10.902 37.294,10.903 0.001,0 0.001,0 0.001,0 9.094,0 17.997-1.778 26.462-5.284 21.045-8.717 36.275-27.111 41.113-49.053 21.941-4.837 40.335-20.068 49.053-41.114 8.716-21.046 6.48-44.821-5.613-63.755 12.093-18.935 14.33-42.711 5.611-63.757zm-25.693,70.043c11.358,14.052 14.123,33.141 7.218,49.816-6.907,16.675-22.361,28.217-40.33,30.122l-8.037,.853-.853,8.037c-1.906,17.97-13.448,33.424-30.122,40.331-6.026,2.496-12.353,3.761-18.807,3.761-0.001,0-0.002,0-0.002,0-11.237,0-22.25-3.899-31.01-10.978l-6.285-5.081-6.286,5.081c-8.759,7.08-19.771,10.978-31.008,10.978-6.455,0-12.783-1.265-18.809-3.761-16.675-6.907-28.217-22.36-30.122-40.329l-.853-8.037-8.037-.853c-17.969-1.906-33.422-13.448-40.329-30.124-6.907-16.675-4.142-35.763 7.217-49.816l5.081-6.286-5.081-6.286c-11.359-14.054-14.124-33.143-7.217-49.818 6.905-16.674 22.358-28.216 40.327-30.121l8.038-.852 .852-8.038c1.905-17.971 13.447-33.424 30.122-40.331 6.025-2.496 12.354-3.761 18.809-3.761 11.235,0 22.247,3.899 31.007,10.979l6.285,5.081 6.286-5.08c8.762-7.081 19.775-10.98 31.012-10.98 6.454,0 12.782,1.265 18.807,3.761 16.675,6.909 28.218,22.361 30.122,40.329l.853,8.038 8.037,.853c17.97,1.905 33.423,13.448 40.331,30.123 6.907,16.675 4.142,35.764-7.217,49.817l-5.08,6.286 5.081,6.286z"/>
    <path d="m319.394,207.113c1.366-12.58-2.98-25.257-12.116-34.392-7.97-7.969-18.565-12.358-29.835-12.358-1.524,0-3.045,0.082-4.555,0.245-7.93-9.862-19.969-15.754-32.888-15.754-12.921,0-24.96,5.891-32.89,15.754-1.51-0.163-3.029-0.245-4.554-0.245-11.271,0-21.867,4.389-29.836,12.358-9.135,9.135-13.481,21.812-12.115,34.392-9.861,7.929-15.752,19.967-15.752,32.886 0,12.919 5.891,24.958 15.752,32.887-1.366,12.58 2.981,25.257 12.116,34.392 7.969,7.97 18.565,12.359 29.836,12.359 1.525,0 3.044-0.082 4.554-0.245 7.93,9.862 19.969,15.754 32.889,15.754s24.959-5.891 32.889-15.754c1.51,0.163 3.029,0.245 4.554,0.245 0.001,0 0.001,0 0.001,0 11.271,0 21.866-4.389 29.835-12.359 9.135-9.135 13.483-21.813 12.116-34.392 9.861-7.93 15.752-19.968 15.752-32.887-0.001-12.919-5.892-24.957-15.753-32.886zm-15.857,52.401l-7.099,3.863 2.288,7.752c2.308,7.817 0.166,16.25-5.591,22.007-4.191,4.192-9.765,6.501-15.692,6.501-2.144-0.001-4.268-0.307-6.313-0.911l-7.751-2.289-3.863,7.099c-3.897,7.161-11.375,11.609-19.516,11.609s-15.618-4.448-19.514-11.608l-3.863-7.1-7.752,2.289c-2.047,0.604-4.171,0.911-6.313,0.911-5.929,0-11.502-2.309-15.693-6.501-5.757-5.756-7.898-14.188-5.591-22.007l2.288-7.752-7.1-3.863c-7.16-3.897-11.608-11.374-11.608-19.515 0-8.14 4.448-15.617 11.608-19.514l7.1-3.863-2.288-7.753c-2.308-7.818-0.166-16.251 5.59-22.007 4.191-4.191 9.765-6.5 15.693-6.5 2.143,0 4.268,0.306 6.313,0.91l7.752,2.288 3.863-7.099c3.896-7.161 11.374-11.609 19.515-11.609 8.14,0 15.616,4.448 19.513,11.609l3.863,7.099 7.752-2.288c2.047-0.604 4.171-0.911 6.315-0.911 5.928,0 11.502,2.309 15.693,6.5 5.756,5.756 7.897,14.189 5.59,22.007l-2.288,7.752 7.1,3.863c7.16,3.896 11.608,11.374 11.609,19.515 5.68434e-14,8.142-4.449,15.62-11.61,19.516z"/>
    <path d="m282.784,222.278c-2.383-5.751-6.872-10.236-12.405-12.659-2.423-5.532-6.907-10.021-12.657-12.403-2.899-1.201-5.952-1.81-9.075-1.81-2.97,0-5.905,0.564-8.646,1.637-2.742-1.072-5.678-1.636-8.647-1.636-3.122,0-6.175,0.609-9.075,1.81-5.751,2.383-10.235,6.872-12.657,12.405-5.532,2.422-10.022,6.907-12.403,12.657-2.383,5.751-2.38,12.097-0.18,17.723-2.2,5.626-2.203,11.971 0.179,17.721 2.382,5.751 6.871,10.236 12.404,12.659 2.423,5.532 6.907,10.022 12.659,12.404 2.898,1.201 5.952,1.81 9.074,1.81 2.969,0 5.905-0.565 8.646-1.636 2.741,1.072 5.677,1.636 8.646,1.636 0,0 0,0 0.001,0 3.122,0 6.175-0.609 9.073-1.81 5.751-2.382 10.235-6.872 12.658-12.404 5.533-2.422 10.023-6.907 12.404-12.657 2.383-5.751 2.38-12.097 0.181-17.723 2.199-5.627 2.202-11.973-0.18-17.724zm-19.028,24.008c0.677,0.837 1.177,2.27 0.55,3.782-0.626,1.511-1.992,2.171-3.064,2.284l-8.036,.852-.854,8.037c-0.113,1.071-0.773,2.439-2.284,3.065-0.461,0.19-0.939,0.287-1.421,0.287-0.855,0-1.693-0.298-2.361-0.838l-6.286-5.08-6.286,5.08c-1.046,0.846-2.507,1.078-3.782,0.551-1.511-0.626-2.171-1.993-2.284-3.063l-.852-8.037-8.037-.854c-1.071-0.113-2.439-0.774-3.065-2.287-0.626-1.51-0.125-2.944 0.552-3.781l5.078-6.285-5.078-6.285c-0.678-0.838-1.178-2.271-0.551-3.783 0.625-1.511 1.992-2.171 3.063-2.284l8.038-.853 .852-8.039c0.113-1.07 0.773-2.437 2.283-3.063 1.277-0.529 2.737-0.295 3.784,0.551l6.286,5.079 6.285-5.08c1.047-0.846 2.507-1.079 3.781-0.551 1.512,0.626 2.172,1.994 2.285,3.064l.854,8.037 8.036,.852c1.071,0.113 2.438,0.773 3.065,2.285 0.626,1.512 0.126,2.945-0.551,3.782l-5.081,6.289 5.081,6.286z"/>
  </g>
</svg>
